# xmcd
#
# Track frame offsets: 
#        150
#        35091
#        95364
#        117625
#        177988
#
# Disc length: 2557 seconds
#
# Revision: 2
# Processed by: cddbd v1.5.2PL0 Copyright (c) Steve Scherf et al.
# Submitted via: ExactAudioCopy v1.3
#
DISCID=4109fb05
DTITLE=Eric Burdon - declares "WAR"
DYEAR=1970
DGENRE=Rock
TTITLE0=The Vision Of Rassan
TTITLE1=Tobacco Road
TTITLE2=Spill The Wine
TTITLE3=Blues For Memphis Slim
TTITLE4=You're No Stranger
EXTD=
EXTT0=
EXTT1=
EXTT2=
EXTT3=
EXTT4=
PLAYORDER=
